<svg width="15" height="9" viewBox="0 0 15 9" fill="none" xmlns="http://www.w3.org/2000/svg">
<path d="M0.365151 0.522561C0.57612 0.311656 0.862217 0.193176 1.16053 0.193176C1.45884 0.193176 1.74493 0.311656 1.9559 0.522561L7.52465 6.09131L13.0934 0.522561C13.3056 0.317633 13.5898 0.204239 13.8847 0.206802C14.1797 0.209366 14.4619 0.327681 14.6704 0.536265C14.879 0.744849 14.9973 1.02701 14.9999 1.32198C15.0025 1.61696 14.8891 1.90113 14.6842 2.11331L8.32003 8.47744C8.10906 8.68834 7.82296 8.80682 7.52465 8.80682C7.22634 8.80682 6.94025 8.68834 6.72928 8.47744L0.365151 2.11331C0.154246 1.90234 0.0357666 1.61625 0.0357666 1.31794C0.0357666 1.01963 0.154246 0.73353 0.365151 0.522561Z" fill="white"/>
</svg>
